<?xml version="1.0" encoding="utf-8"?>
<!-- Generator: Adobe Illustrator 19.2.1, SVG Export Plug-In . SVG Version: 6.00 Build 0)  -->
<svg version="1.1" id="layer" xmlns="http://www.w3.org/2000/svg" xmlns:xlink="http://www.w3.org/1999/xlink" x="0px" y="0px"
	 viewBox="0 0 652 652" style="enable-background:new 0 0 652 652;" xml:space="preserve">
<style type="text/css">
	.st0{fill:none;stroke:#000000;stroke-width:3.3571;stroke-miterlimit:10;}
</style>
<g>
	<path d="M581.2,377.1c3.5,10.1-9.5,22.6-29.1,28c-19.5,5.4-38.1,1.5-41.6-8.6c-3.5-10.1,9.6-22.6,29.1-27.9
		C559.1,363.2,577.7,367,581.2,377.1"/>
	<path class="st0" d="M581.2,377.1c3.5,10.1-9.5,22.6-29.1,28c-19.5,5.4-38.1,1.5-41.6-8.6c-3.5-10.1,9.6-22.6,29.1-27.9
		C559.1,363.2,577.7,367,581.2,377.1"/>
	<path d="M483.9,377.1c3.5,10.1-9.5,22.6-29.1,28c-19.5,5.4-38.1,1.5-41.6-8.6c-3.5-10.1,9.5-22.6,29-27.9
		C461.8,363.2,480.5,367,483.9,377.1"/>
	<path class="st0" d="M483.9,377.1c3.5,10.1-9.5,22.6-29.1,28c-19.5,5.4-38.1,1.5-41.6-8.6c-3.5-10.1,9.5-22.6,29-27.9
		C461.8,363.2,480.5,367,483.9,377.1"/>
	<path d="M121.3,419.5c-1.5,6.8-3.4,12.6-5.8,17.1c-2.4,4.5-5.4,8.2-9.2,11c-3.8,2.8-8.3,4.7-13.7,5.9c-5.4,1.2-11.7,1.8-19.1,1.8
		H25.2c-1.5,0-2.7-0.5-3.7-1.5c-0.9-1-1.2-2.2-0.8-3.5l2.5-12.1c0-1.9,0.7-3.2,2.2-3.9c1.5-0.7,3.3-1.1,5.4-1.1
		c1.3,0.2,2.5,0.3,3.7,0.4c1.1,0,3.2,0.1,6.2,0.1h13h23.4c2.6,0,4.5-0.5,5.5-1.5c1-1,1.9-3.2,2.7-6.6l34.1-156.1
		c0.4-1.3,1.2-2.5,2.4-3.5c1.2-1,2.6-1.5,4.1-1.5h23.4c1.5,0,2.8,0.5,3.8,1.5c1,1,1.4,2.2,1,3.5L121.3,419.5z M132,218.3
		c-0.9-1-1.2-2.2-0.8-3.5l4.5-20.9c0.4-1.3,1.2-2.5,2.5-3.5c1.3-1,2.7-1.5,4.2-1.5h23.7c1.5,0,2.7,0.5,3.7,1.5
		c0.9,1,1.2,2.2,0.9,3.5l-4.5,20.9c-0.4,1.3-1.2,2.5-2.5,3.5c-1.3,1-2.7,1.5-4.2,1.5h-23.7C134.2,219.8,133,219.3,132,218.3"/>
	<path class="st0" d="M121.3,419.5c-1.5,6.8-3.4,12.6-5.8,17.1c-2.4,4.5-5.4,8.2-9.2,11c-3.8,2.8-8.3,4.7-13.7,5.9
		c-5.4,1.2-11.7,1.8-19.1,1.8H25.2c-1.5,0-2.7-0.5-3.7-1.5c-0.9-1-1.2-2.2-0.8-3.5l2.5-12.1c0-1.9,0.7-3.2,2.2-3.9
		c1.5-0.7,3.3-1.1,5.4-1.1c1.3,0.2,2.5,0.3,3.7,0.4c1.1,0,3.2,0.1,6.2,0.1h13h23.4c2.6,0,4.5-0.5,5.5-1.5c1-1,1.9-3.2,2.7-6.6
		l34.1-156.1c0.4-1.3,1.2-2.5,2.4-3.5c1.2-1,2.6-1.5,4.1-1.5h23.4c1.5,0,2.8,0.5,3.8,1.5c1,1,1.4,2.2,1,3.5L121.3,419.5z M132,218.3
		c-0.9-1-1.2-2.2-0.8-3.5l4.5-20.9c0.4-1.3,1.2-2.5,2.5-3.5c1.3-1,2.7-1.5,4.2-1.5h23.7c1.5,0,2.7,0.5,3.7,1.5
		c0.9,1,1.2,2.2,0.9,3.5l-4.5,20.9c-0.4,1.3-1.2,2.5-2.5,3.5c-1.3,1-2.7,1.5-4.2,1.5h-23.7C134.2,219.8,133,219.3,132,218.3"/>
	<path d="M121.3,419.5c-1.5,6.8-3.4,12.6-5.8,17.1c-2.4,4.5-5.4,8.2-9.2,11c-3.8,2.8-8.3,4.7-13.7,5.9c-5.4,1.2-11.7,1.8-19.1,1.8
		H25.2c-1.5,0-2.7-0.5-3.7-1.5c-0.9-1-1.2-2.2-0.8-3.5l2.5-12.1c0-1.9,0.7-3.2,2.2-3.9c1.5-0.7,3.3-1.1,5.4-1.1
		c1.3,0.2,2.5,0.3,3.7,0.4c1.1,0,3.2,0.1,6.2,0.1h13h23.4c2.6,0,4.5-0.5,5.5-1.5c1-1,1.9-3.2,2.7-6.6l34.1-156.1
		c0.4-1.3,1.2-2.5,2.4-3.5c1.2-1,2.6-1.5,4.1-1.5h23.4c1.5,0,2.8,0.5,3.8,1.5c1,1,1.4,2.2,1,3.5L121.3,419.5z M132,218.3
		c-0.9-1-1.2-2.2-0.8-3.5l4.5-20.9c0.4-1.3,1.2-2.5,2.5-3.5c1.3-1,2.7-1.5,4.2-1.5h23.7c1.5,0,2.7,0.5,3.7,1.5
		c0.9,1,1.2,2.2,0.9,3.5l-4.5,20.9c-0.4,1.3-1.2,2.5-2.5,3.5c-1.3,1-2.7,1.5-4.2,1.5h-23.7C134.2,219.8,133,219.3,132,218.3"/>
	<path class="st0" d="M121.3,419.5c-1.5,6.8-3.4,12.6-5.8,17.1c-2.4,4.5-5.4,8.2-9.2,11c-3.8,2.8-8.3,4.7-13.7,5.9
		c-5.4,1.2-11.7,1.8-19.1,1.8H25.2c-1.5,0-2.7-0.5-3.7-1.5c-0.9-1-1.2-2.2-0.8-3.5l2.5-12.1c0-1.9,0.7-3.2,2.2-3.9
		c1.5-0.7,3.3-1.1,5.4-1.1c1.3,0.2,2.5,0.3,3.7,0.4c1.1,0,3.2,0.1,6.2,0.1h13h23.4c2.6,0,4.5-0.5,5.5-1.5c1-1,1.9-3.2,2.7-6.6
		l34.1-156.1c0.4-1.3,1.2-2.5,2.4-3.5c1.2-1,2.6-1.5,4.1-1.5h23.4c1.5,0,2.8,0.5,3.8,1.5c1,1,1.4,2.2,1,3.5L121.3,419.5z M132,218.3
		c-0.9-1-1.2-2.2-0.8-3.5l4.5-20.9c0.4-1.3,1.2-2.5,2.5-3.5c1.3-1,2.7-1.5,4.2-1.5h23.7c1.5,0,2.7,0.5,3.7,1.5
		c0.9,1,1.2,2.2,0.9,3.5l-4.5,20.9c-0.4,1.3-1.2,2.5-2.5,3.5c-1.3,1-2.7,1.5-4.2,1.5h-23.7C134.2,219.8,133,219.3,132,218.3"/>
	<path d="M552.3,388c-1.5,0-2.7-0.5-3.7-1.5c-0.9-1-1.2-2.2-0.8-3.5l20-88.6c0.4-1.8,0.2-3.7-0.4-5.6c-0.7-1.9-2-2.9-4.1-2.9h-59.8
		l-21,92.4c-0.4,1.4-1.2,2.5-2.6,3.5c-1.3,1-2.7,1.5-4.2,1.5h-25.1c-1.5,0-2.7-0.5-3.7-1.5c-1-1-1.2-2.2-0.8-3.5l20.9-92.4h-66.3
		L376,399.8c-0.4,1.3-1.1,2.5-2.3,3.5c-1.1,1-2.4,1.5-3.9,1.5h-66.8c-1.5,0-2.7-0.5-3.7-1.5c-0.9-1-1.2-2.2-0.8-3.5l2.5-11.6
		c0.4-1.4,1.2-2.5,2.5-3.6c1.3-1,2.7-1.5,4.2-1.5h35.8l24.5-113.6c0.4-1.3,1.2-2.5,2.5-3.5c1.3-1,2.8-1.5,4.2-1.5h216.9
		c3.4,0,6.1,0.7,8.2,2.1c2.1,1.4,3.6,3.2,4.5,5.4c0.9,2.2,1.5,4.6,1.5,7.3c0.1,2.7-0.1,5.4-0.7,8l-21.6,95.4
		c-0.4,1.3-1.2,2.5-2.5,3.5c-1.3,1-2.7,1.5-4.2,1.5H552.3z"/>
	<path class="st0" d="M552.3,388c-1.5,0-2.7-0.5-3.7-1.5c-0.9-1-1.2-2.2-0.8-3.5l20-88.6c0.4-1.8,0.2-3.7-0.4-5.6
		c-0.7-1.9-2-2.9-4.1-2.9h-59.8l-21,92.4c-0.4,1.4-1.2,2.5-2.6,3.5c-1.3,1-2.7,1.5-4.2,1.5h-25.1c-1.5,0-2.7-0.5-3.7-1.5
		c-1-1-1.2-2.2-0.8-3.5l20.9-92.4h-66.3L376,399.8c-0.4,1.3-1.1,2.5-2.3,3.5c-1.1,1-2.4,1.5-3.9,1.5h-66.8c-1.5,0-2.7-0.5-3.7-1.5
		c-0.9-1-1.2-2.2-0.8-3.5l2.5-11.6c0.4-1.4,1.2-2.5,2.5-3.6c1.3-1,2.7-1.5,4.2-1.5h35.8l24.5-113.6c0.4-1.3,1.2-2.5,2.5-3.5
		c1.3-1,2.8-1.5,4.2-1.5h216.9c3.4,0,6.1,0.7,8.2,2.1c2.1,1.4,3.6,3.2,4.5,5.4c0.9,2.2,1.5,4.6,1.5,7.3c0.1,2.7-0.1,5.4-0.7,8
		l-21.6,95.4c-0.4,1.3-1.2,2.5-2.5,3.5c-1.3,1-2.7,1.5-4.2,1.5H552.3z"/>
	<path d="M288.8,338.4h-80.4c-2.6,0-4.5,0.5-5.5,1.5c-1.1,1-1.9,3.2-2.7,6.6l-6.2,28.7c-0.8,3.4-0.8,5.6-0.1,6.6
		c0.6,1,2.3,1.5,4.9,1.5h174.5c1.5,0,2.7,0.5,3.7,1.5c0.9,1.1,1.2,2.2,0.8,3.6l-2.5,11.6c-0.4,1.3-1.2,2.5-2.6,3.5
		c-1.3,1-2.7,1.5-4.2,1.5H192.7c-7.3,0-13.5-0.6-18.3-1.8c-4.9-1.2-8.6-3.1-11.1-5.9c-2.5-2.8-4-6.4-4.4-10.9
		c-0.4-4.5,0.2-10.2,1.7-17.1l3.4-16.6c1.5-6.9,3.5-12.6,5.9-17.1c2.5-4.5,5.6-8.2,9.3-11c3.7-2.8,8.3-4.7,13.6-5.9
		c5.4-1.2,11.7-1.8,19-1.8h75.3c2.6,0,4.4-0.5,5.5-1.5c1-1,1.9-3.2,2.7-6.6l3.4-15.1c0.8-3,0.8-5,0.1-6c-0.7-1-2.3-1.5-4.9-1.5
		H188.7c-1.7,0-3-0.5-3.8-1.5c-0.9-1-1.1-2.3-0.7-3.8l2.5-11.6c0.4-1.3,1.2-2.5,2.4-3.4c1.2-0.9,2.6-1.4,4.1-1.4h106.6
		c7.3,0,13.4,0.6,18.3,1.7c4.9,1.2,8.6,3.1,11.2,6c2.5,2.7,4,6.4,4.5,10.9c0.5,4.5,0,10.2-1.5,17.1l-12.1,55.4
		c-0.4,1.4-1.2,2.5-2.5,3.5c-1.3,1-2.7,1.5-4.2,1.5h-23.7c-1.5,0-2.7-0.5-3.7-1.5c-1-1-1.2-2.2-0.8-3.5L288.8,338.4z"/>
	<path class="st0" d="M288.8,338.4h-80.4c-2.6,0-4.5,0.5-5.5,1.5c-1.1,1-1.9,3.2-2.7,6.6l-6.2,28.7c-0.8,3.4-0.8,5.6-0.1,6.6
		c0.6,1,2.3,1.5,4.9,1.5h174.5c1.5,0,2.7,0.5,3.7,1.5c0.9,1.1,1.2,2.2,0.8,3.6l-2.5,11.6c-0.4,1.3-1.2,2.5-2.6,3.5
		c-1.3,1-2.7,1.5-4.2,1.5H192.7c-7.3,0-13.5-0.6-18.3-1.8c-4.9-1.2-8.6-3.1-11.1-5.9c-2.5-2.8-4-6.4-4.4-10.9
		c-0.4-4.5,0.2-10.2,1.7-17.1l3.4-16.6c1.5-6.9,3.5-12.6,5.9-17.1c2.5-4.5,5.6-8.2,9.3-11c3.7-2.8,8.3-4.7,13.6-5.9
		c5.4-1.2,11.7-1.8,19-1.8h75.3c2.6,0,4.4-0.5,5.5-1.5c1-1,1.9-3.2,2.7-6.6l3.4-15.1c0.8-3,0.8-5,0.1-6c-0.7-1-2.3-1.5-4.9-1.5
		H188.7c-1.7,0-3-0.5-3.8-1.5c-0.9-1-1.1-2.3-0.7-3.8l2.5-11.6c0.4-1.3,1.2-2.5,2.4-3.4c1.2-0.9,2.6-1.4,4.1-1.4h106.6
		c7.3,0,13.4,0.6,18.3,1.7c4.9,1.2,8.6,3.1,11.2,6c2.5,2.7,4,6.4,4.5,10.9c0.5,4.5,0,10.2-1.5,17.1l-12.1,55.4
		c-0.4,1.4-1.2,2.5-2.5,3.5c-1.3,1-2.7,1.5-4.2,1.5h-23.7c-1.5,0-2.7-0.5-3.7-1.5c-1-1-1.2-2.2-0.8-3.5L288.8,338.4z"/>
	<path d="M606.9,393.8v1.8h-3.4v8.9h-2.1v-8.9H598v-1.8H606.9z M618.4,404.4l-0.4-6.2c0-0.8,0-1.8-0.1-3h-0.1
		c-0.3,0.9-0.6,2.2-0.9,3.1l-1.9,5.9h-2.2l-1.9-6c-0.2-0.8-0.5-2.1-0.7-3h-0.1c0,1,0,2-0.1,3l-0.4,6.2h-2l0.8-10.6h3.2l1.8,5.2
		c0.3,0.8,0.4,1.6,0.7,2.7h0c0.3-0.9,0.5-1.9,0.7-2.6l1.8-5.3h3l0.8,10.6H618.4z"/>
</g>
</svg>
